<?xml version="1.0" encoding="UTF-8" standalone="no"?>
<!-- Created with Inkscape (http://www.inkscape.org/) -->

<svg
   xmlns:dc="http://purl.org/dc/elements/1.1/"
   xmlns:cc="http://creativecommons.org/ns#"
   xmlns:rdf="http://www.w3.org/1999/02/22-rdf-syntax-ns#"
   xmlns:svg="http://www.w3.org/2000/svg"
   xmlns="http://www.w3.org/2000/svg"
   xmlns:sodipodi="http://sodipodi.sourceforge.net/DTD/sodipodi-0.dtd"
   xmlns:inkscape="http://www.inkscape.org/namespaces/inkscape"
   width="176.21379"
   height="176.23019"
   id="svg2"
   version="1.1"
   inkscape:version="0.48.4 r9939"
   sodipodi:docname="New document 1">
  <defs
     id="defs4" />
  <sodipodi:namedview
     id="base"
     pagecolor="#ffffff"
     bordercolor="#666666"
     borderopacity="1.0"
     inkscape:pageopacity="0.0"
     inkscape:pageshadow="2"
     inkscape:zoom="1.5448465"
     inkscape:cx="94.47132"
     inkscape:cy="118.06454"
     inkscape:document-units="px"
     inkscape:current-layer="layer1"
     showgrid="false"
     fit-margin-top="0"
     fit-margin-left="0"
     fit-margin-right="0"
     fit-margin-bottom="0"
     inkscape:window-width="1366"
     inkscape:window-height="696"
     inkscape:window-x="0"
     inkscape:window-y="25"
     inkscape:window-maximized="1" />
  <metadata
     id="metadata7">
    <rdf:RDF>
      <cc:Work
         rdf:about="">
        <dc:format>image/svg+xml</dc:format>
        <dc:type
           rdf:resource="http://purl.org/dc/dcmitype/StillImage" />
        <dc:title></dc:title>
      </cc:Work>
    </rdf:RDF>
  </metadata>
  <g
     inkscape:label="Layer 1"
     inkscape:groupmode="layer"
     id="layer1"
     transform="translate(-212.92436,-426.18178)">
    <g
       id="g3039"
       transform="matrix(0.52503177,0,0,0.52503177,142.98028,244.27468)">
      <path
         transform="matrix(0.90236687,0,0,0.90236687,105.42551,181.65474)"
         d="m 392.27202,372.70374 c 0,97.89612 -79.36049,177.2566 -177.25661,177.2566 -97.89612,0 -177.256606,-79.36048 -177.256606,-177.2566 0,-97.89613 79.360486,-177.25661 177.256606,-177.25661 97.89612,0 177.25661,79.36048 177.25661,177.25661 z"
         sodipodi:ry="177.25661"
         sodipodi:rx="177.25661"
         sodipodi:cy="372.70374"
         sodipodi:cx="215.01541"
         id="path3033"
         style="fill:#decd87;fill-opacity:1;stroke:none"
         sodipodi:type="arc" />
      <path
         sodipodi:nodetypes="cccc"
         inkscape:connector-curvature="0"
         id="path2993"
         d="m 294.1982,582.33723 -20.40359,24.56759 0.8328,39.14157 c 14.8107,-17.92154 21.416,-39.12525 19.57079,-63.70916 z"
         style="fill:#000000;stroke:none" />
      <path
         style="fill:#000000;stroke:none"
         d="m 204.70203,601.86536 28.54385,-14.32206 14.9353,-36.18969 c -20.755,10.47705 -35.30979,27.25159 -43.47915,50.51175 z"
         id="path2995"
         inkscape:connector-curvature="0"
         sodipodi:nodetypes="cccc" />
      <path
         id="path2987"
         d="m 372.96171,397.01717 -0.21875,0.46875 c -1.13523,0.47898 -2.24991,0.97371 -3.375,1.5 -0.14743,0.0689 -0.29024,0.14907 -0.4375,0.21875 -1.26003,0.59624 -2.50287,1.22164 -3.75,1.875 -1.22658,0.64259 -2.44237,1.30422 -3.65625,2 -0.0603,0.0346 -0.12723,0.0591 -0.1875,0.0937 -1.17367,0.67558 -2.33842,1.40162 -3.5,2.125 -0.0516,0.0322 -0.10465,0.0615 -0.15625,0.0937 -0.94587,0.59102 -1.87478,1.19092 -2.8125,1.8125 -0.52392,0.34729 -1.04115,0.70592 -1.5625,1.0625 -0.2605,0.17826 -0.52139,0.3507 -0.78125,0.53125 -0.95476,0.66336 -1.89779,1.33766 -2.84375,2.03125 -0.9202,0.67417 -1.83822,1.3295 -2.75,2.03125 -0.66127,0.50913 -1.31196,1.03931 -1.96875,1.5625 -0.49841,0.39684 -1.00418,0.78276 -1.5,1.1875 -0.0342,0.0279 -0.0596,0.0658 -0.0937,0.0937 -0.56792,0.46438 -1.12301,0.963 -1.6875,1.4375 -0.46542,0.39148 -0.94318,0.75804 -1.40625,1.15625 -0.0953,0.0819 -0.18604,0.16781 -0.28125,0.25 -1.04067,0.89891 -2.0651,1.81834 -3.09375,2.75 -0.80651,0.72994 -1.60724,1.46954 -2.40625,2.21875 -0.13418,0.12588 -0.27228,0.24859 -0.40625,0.375 -0.81845,0.77192 -1.62704,1.5525 -2.4375,2.34375 -0.20582,0.20101 -0.4197,0.39153 -0.625,0.59375 -0.93839,0.92429 -1.85374,1.86369 -2.78125,2.8125 -0.77649,0.79413 -1.54376,1.59574 -2.3125,2.40625 -0.57167,0.60277 -1.15138,1.20106 -1.71875,1.8125 -0.59443,0.64061 -1.1916,1.2877 -1.78125,1.9375 -53.21937,58.64796 -86.875,154 -86.875,154 l -1.59375,18.71875 19.09375,11.90625 c 5.46271,-4.75104 10.85092,-9.01366 17.78125,-13.375 11.43055,-12.99189 68.33339,-79.6833 92.125,-146.46875 0.0299,-0.084 0.0639,-0.16598 0.0937,-0.25 0.4474,-1.26031 0.88928,-2.52129 1.3125,-3.78125 0.28401,-0.84554 0.57103,-1.68612 0.84375,-2.53125 0.16186,-0.50151 0.31096,-0.9987 0.46875,-1.5 0.2757,-0.87583 0.54948,-1.74998 0.8125,-2.625 0.14108,-0.46939 0.2689,-0.93716 0.40625,-1.40625 0.36821,-1.2572 0.72179,-2.49537 1.0625,-3.75 0.0225,-0.0829 0.0401,-0.16713 0.0625,-0.25 0.25719,-0.95212 0.50922,-1.89351 0.75,-2.84375 0.0981,-0.38682 0.18596,-0.76978 0.28125,-1.15625 0.32868,-1.3335 0.64267,-2.67121 0.9375,-4 0.22368,-1.0081 0.4527,-2.02631 0.65625,-3.03125 0.0658,-0.32469 0.12388,-0.64441 0.1875,-0.96875 0.20403,-1.03952 0.38086,-2.05818 0.5625,-3.09375 0.15699,-0.89512 0.29768,-1.79562 0.4375,-2.6875 0.072,-0.4592 0.15143,-0.91672 0.21875,-1.375 0.0353,-0.23981 0.0598,-0.4792 0.0937,-0.71875 0.20056,-1.41488 0.37626,-2.84479 0.53125,-4.25 0.11271,-1.02186 0.22463,-2.04625 0.3125,-3.0625 0.11476,-1.32728 0.2101,-2.65188 0.28125,-3.96875 0.007,-0.13716 0.0243,-0.26921 0.0312,-0.40625 0.0595,-1.17699 0.1015,-2.33216 0.125,-3.5 0.002,-0.10444 -0.002,-0.20813 0,-0.3125 0.0208,-1.19814 0.0184,-2.40606 0,-3.59375 -0.0207,-1.32485 -0.0542,-2.65781 -0.125,-3.96875 -0.0674,-1.24663 -0.16717,-2.48566 -0.28125,-3.71875 l 0.3125,-0.59375 c -0.11054,0.0458 -0.23322,0.10999 -0.34375,0.15625 -0.0116,-0.11927 -0.0192,-0.25588 -0.0312,-0.375 z"
         style="fill:#000000;stroke:none"
         inkscape:connector-curvature="0" />
      <path
         sodipodi:nodetypes="ccccccccc"
         inkscape:connector-curvature="0"
         style="fill:#000000;stroke:none"
         d="m 322.43046,435.79842 c -53.21937,58.64796 -86.875,154 -86.875,154 l -1.59375,18.71875 19.09375,11.90625 c 5.46271,-4.75104 10.85092,-9.01366 17.78125,-13.375 11.43055,-12.99189 68.33339,-79.6833 92.125,-146.46875 0.0299,-0.084 0.0639,-0.16598 0.0937,-0.25 0.4474,-1.26031 0.88928,-2.52129 1.3125,-3.78125 -15.11893,-5.39366 -13.86974,-21.17456 -41.9375,-20.75 z"
         id="path3011" />
      <path
         id="path3019"
         d="m 301.03125,346.46875 c -92.68271,0 -167.8125,75.16104 -167.8125,167.84375 0,92.68271 75.12979,167.8125 167.8125,167.8125 92.68271,0 167.8125,-75.12979 167.8125,-167.8125 0,-92.68271 -75.12979,-167.84375 -167.8125,-167.84375 z m 0,14.6875 c 84.57297,0 153.125,68.58328 153.125,153.15625 0,84.57297 -68.55203,153.125 -153.125,153.125 -84.57297,0 -153.15625,-68.55203 -153.15625,-153.125 0,-84.57297 68.58328,-153.15625 153.15625,-153.15625 z"
         style="fill:#000000;fill-opacity:1;stroke:none"
         inkscape:connector-curvature="0" />
      <path
         sodipodi:nodetypes="czc"
         inkscape:connector-curvature="0"
         id="path3027"
         d="m 140.54665,520.59238 c 0,0 89.18137,-123.12129 169.91462,-11.53742 80.73325,111.58388 146.6556,17.84078 146.83979,12.58627"
         style="fill:none;stroke:#000000;stroke-width:6;stroke-linecap:butt;stroke-linejoin:miter;stroke-opacity:1" />
      <path
         style="fill:none;stroke:#000000;stroke-width:6;stroke-linecap:butt;stroke-linejoin:miter;stroke-opacity:1"
         d="m 140.54665,520.59238 c 0,0 113.30505,-248.98397 169.91462,-11.53742 56.60957,237.44655 146.6556,17.84078 146.83979,12.58627"
         id="path3029"
         inkscape:connector-curvature="0"
         sodipodi:nodetypes="czc" />
      <path
         sodipodi:nodetypes="czc"
         inkscape:connector-curvature="0"
         id="path3031"
         d="m 140.54665,520.59238 c 0,0 81.83938,-58.09225 169.91462,-11.53742 88.07524,46.55483 146.6556,17.84078 146.83979,12.58627"
         style="fill:none;stroke:#000000;stroke-width:6;stroke-linecap:butt;stroke-linejoin:miter;stroke-opacity:1" />
    </g>
  </g>
</svg>
